<svg width="250" height="250" viewBox="0 0 250 250" fill="none" xmlns="http://www.w3.org/2000/svg">
<path d="M0 80C0 35.8172 35.8172 0 80 0H152C206.124 0 250 43.8761 250 98V152C250 206.124 206.124 250 152 250H24C10.7452 250 0 239.255 0 226V80Z" fill="#FE705A"/>
<path d="M139.056 189.12C136.827 189.12 134.952 188.259 133.432 186.536C132.013 184.813 131.304 181.976 131.304 178.024C131.304 176.707 131.456 175.288 131.76 173.768C132.064 172.147 132.621 170.525 133.432 168.904C128.365 156.339 124.109 144.128 120.664 132.272C117.219 120.416 114.28 108.003 111.848 95.032C108.605 101.72 105.515 108.661 102.576 115.856C99.7387 122.949 97.0533 129.891 94.52 136.68C91.9867 143.469 89.7067 149.803 87.68 155.68C85.6533 161.557 83.88 166.624 82.36 170.88C80.7387 175.947 79.1173 179.341 77.496 181.064C75.8747 182.888 74.2027 183.8 72.48 183.8C70.1493 183.8 68.376 183.243 67.16 182.128C66.0453 181.013 65.488 179.037 65.488 176.2C65.488 174.072 66.0453 170.779 67.16 166.32C68.2747 161.861 69.7947 156.693 71.72 150.816C73.7467 144.939 76.0267 138.757 78.56 132.272C81.0933 125.787 83.7787 119.453 86.616 113.272C89.5547 107.091 92.4933 101.517 95.432 96.552C98.3707 91.4853 101.157 87.4827 103.792 84.544C106.528 81.504 109.011 79.984 111.24 79.984C113.571 79.984 115.547 80.44 117.168 81.352C118.891 82.264 120.765 84.6453 122.792 88.496C124.109 91.1307 125.629 94.9813 127.352 100.048C129.075 105.013 130.797 110.637 132.52 116.92C134.243 123.101 135.915 129.485 137.536 136.072C139.157 142.557 140.576 148.587 141.792 154.16C145.845 135.413 149.392 118.997 152.432 104.912C155.472 90.7253 157.803 79.6293 159.424 71.624C161.147 63.6187 162.059 59.4133 162.16 59.008C162.768 56.3733 163.427 54.752 164.136 54.144C164.845 53.536 165.859 53.232 167.176 53.232C169 53.232 170.773 53.992 172.496 55.512C174.32 56.9307 175.232 58.9067 175.232 61.44C175.232 62.656 174.928 65.4427 174.32 69.8C173.813 74.1573 173.003 79.6293 171.888 86.216C170.875 92.7013 169.557 99.9467 167.936 107.952C166.315 115.856 164.44 124.115 162.312 132.728C160.184 141.24 157.803 149.701 155.168 158.112C152.635 166.421 149.848 174.275 146.808 181.672C145.693 184.509 144.376 186.435 142.856 187.448C141.437 188.563 140.171 189.12 139.056 189.12Z" fill="white"/>
</svg>
